<svg width="224" height="64" viewBox="0 0 224 64" fill="none" xmlns="http://www.w3.org/2000/svg">
<rect x="1" y="1" width="222" height="62" rx="6" fill="#121212" stroke="#E4E4E4" stroke-width="2"/>
<path d="M43.683 40.7055C43.5889 40.9714 43.4976 41.2569 43.3927 41.5374C42.5234 43.891 41.2039 45.9806 39.6029 47.8956C39.2938 48.2684 38.9338 48.6059 38.562 48.9189C37.8271 49.5409 36.9815 49.9166 36.0034 49.9509C35.2686 49.9745 34.5632 49.8411 33.8833 49.5644C33.3908 49.3633 32.9062 49.1386 32.4068 48.9571C30.7861 48.3685 29.1743 48.446 27.5801 49.0759C27.0052 49.3035 26.4381 49.5546 25.8524 49.7518C25.1735 49.9794 24.4691 50.0716 23.752 49.9362C23.1261 49.8195 22.5787 49.5281 22.0705 49.1524C21.4397 48.6854 20.9099 48.1164 20.4145 47.514C18.0688 44.6533 16.4942 41.4187 15.7339 37.7957C15.4062 36.2378 15.2492 34.6671 15.3454 33.0749C15.4582 31.1658 15.9016 29.3479 16.9219 27.7095C18.2022 25.6503 20.0083 24.3014 22.3844 23.7451C23.8138 23.4086 25.204 23.5459 26.5666 24.0708C27.2838 24.3455 28.0029 24.6172 28.723 24.887C29.3862 25.1362 30.0464 25.1362 30.7106 24.8821C31.4454 24.6016 32.1812 24.322 32.9189 24.0482C33.6753 23.7726 34.4445 23.5469 35.247 23.4832C36.4478 23.386 37.6192 23.542 38.7591 23.9236C40.3749 24.4642 41.6895 25.4207 42.6824 26.8138C42.7089 26.8521 42.7383 26.8943 42.7579 26.9247C40.2543 28.67 38.8288 30.9754 39.0358 34.0972C39.2448 37.2208 40.9263 39.334 43.683 40.7055ZM29.6393 23.0966C30.378 23.1162 31.0883 22.974 31.7721 22.7022C34.8909 21.4641 36.5214 18.1649 36.4723 15.6416C36.4684 15.4385 36.4547 15.2355 36.4458 15C36.125 15.0481 35.8327 15.0706 35.5521 15.1413C33.2751 15.6995 31.5229 16.97 30.3712 19.0272C29.6972 20.2319 29.3224 21.5112 29.4372 22.9092C29.445 23.0574 29.499 23.0947 29.6393 23.0966Z" fill="#F2F2F2"/>
<path d="M63.08 13.418H67.292C68.66 13.418 69.848 13.67 70.856 14.174C71.864 14.678 72.638 15.398 73.178 16.334C73.718 17.27 73.988 18.374 73.988 19.646C73.988 21.734 73.382 23.318 72.17 24.398C70.958 25.466 69.266 26 67.094 26H63.08V13.418ZM67.13 24.11C68.594 24.11 69.716 23.72 70.496 22.94C71.288 22.148 71.684 21.05 71.684 19.646C71.684 18.794 71.51 18.044 71.162 17.396C70.814 16.736 70.316 16.226 69.668 15.866C69.02 15.494 68.252 15.308 67.364 15.308H65.366V24.11H67.13ZM79.9421 26.27C78.9341 26.27 78.0461 26.09 77.2781 25.73C76.5221 25.358 75.9341 24.83 75.5141 24.146C75.0941 23.45 74.8841 22.628 74.8841 21.68C74.8841 20.756 75.0881 19.952 75.4961 19.268C75.9161 18.572 76.5101 18.038 77.2781 17.666C78.0461 17.282 78.9341 17.09 79.9421 17.09C80.9501 17.09 81.8321 17.282 82.5881 17.666C83.3561 18.038 83.9501 18.572 84.3701 19.268C84.7901 19.952 85.0001 20.756 85.0001 21.68C85.0001 22.628 84.7901 23.45 84.3701 24.146C83.9501 24.83 83.3561 25.358 82.5881 25.73C81.8321 26.09 80.9501 26.27 79.9421 26.27ZM79.9421 24.488C80.7701 24.488 81.4301 24.23 81.9221 23.714C82.4141 23.186 82.6601 22.508 82.6601 21.68C82.6601 20.804 82.4141 20.12 81.9221 19.628C81.4421 19.124 80.7821 18.872 79.9421 18.872C79.1021 18.872 78.4361 19.124 77.9441 19.628C77.4641 20.12 77.2241 20.804 77.2241 21.68C77.2241 22.508 77.4701 23.186 77.9621 23.714C78.4541 24.23 79.1141 24.488 79.9421 24.488ZM85.2552 17.36H87.5232L89.2872 23.21L91.0152 17.36H92.9952L94.7232 23.21L96.4872 17.36H98.7552L95.9292 26H93.8412L92.0052 20.132L90.1692 26H88.0812L85.2552 17.36ZM100.1 17.36H102.296V18.53C102.704 18.038 103.19 17.678 103.754 17.45C104.318 17.21 104.912 17.09 105.536 17.09C106.7 17.09 107.57 17.408 108.146 18.044C108.722 18.668 109.01 19.502 109.01 20.546V26H106.742V20.762C106.742 19.502 106.154 18.872 104.978 18.872C104.462 18.872 103.976 18.998 103.52 19.25C103.064 19.49 102.68 19.856 102.368 20.348V26H100.1V17.36ZM111.086 12.698H113.354V26H111.086V12.698ZM120.214 26.27C119.206 26.27 118.318 26.09 117.55 25.73C116.794 25.358 116.206 24.83 115.786 24.146C115.366 23.45 115.156 22.628 115.156 21.68C115.156 20.756 115.36 19.952 115.768 19.268C116.188 18.572 116.782 18.038 117.55 17.666C118.318 17.282 119.206 17.09 120.214 17.09C121.222 17.09 122.104 17.282 122.86 17.666C123.628 18.038 124.222 18.572 124.642 19.268C125.062 19.952 125.272 20.756 125.272 21.68C125.272 22.628 125.062 23.45 124.642 24.146C124.222 24.83 123.628 25.358 122.86 25.73C122.104 26.09 121.222 26.27 120.214 26.27ZM120.214 24.488C121.042 24.488 121.702 24.23 122.194 23.714C122.686 23.186 122.932 22.508 122.932 21.68C122.932 20.804 122.686 20.12 122.194 19.628C121.714 19.124 121.054 18.872 120.214 18.872C119.374 18.872 118.708 19.124 118.216 19.628C117.736 20.12 117.496 20.804 117.496 21.68C117.496 22.508 117.742 23.186 118.234 23.714C118.726 24.23 119.386 24.488 120.214 24.488ZM129.775 26.27C128.743 26.27 127.897 26 127.237 25.46C126.577 24.908 126.247 24.17 126.247 23.246C126.247 22.286 126.559 21.536 127.183 20.996C127.807 20.456 128.683 20.186 129.811 20.186C130.903 20.186 131.845 20.408 132.637 20.852V20.618C132.637 20.006 132.445 19.562 132.061 19.286C131.689 19.01 131.083 18.872 130.243 18.872C129.715 18.872 129.193 18.926 128.677 19.034C128.161 19.13 127.705 19.268 127.309 19.448V17.666C127.669 17.498 128.149 17.36 128.749 17.252C129.361 17.144 129.949 17.09 130.513 17.09C132.013 17.09 133.123 17.414 133.843 18.062C134.563 18.698 134.923 19.586 134.923 20.726V26H132.781V25.154C132.409 25.514 131.983 25.79 131.503 25.982C131.035 26.174 130.459 26.27 129.775 26.27ZM130.333 24.614C130.837 24.614 131.293 24.518 131.701 24.326C132.109 24.122 132.421 23.846 132.637 23.498V22.544C131.977 22.076 131.221 21.842 130.369 21.842C129.157 21.842 128.551 22.31 128.551 23.246C128.551 23.702 128.701 24.044 129.001 24.272C129.313 24.5 129.757 24.614 130.333 24.614ZM141.19 26.27C140.314 26.27 139.528 26.084 138.832 25.712C138.148 25.328 137.608 24.794 137.212 24.11C136.828 23.414 136.636 22.61 136.636 21.698C136.636 20.798 136.828 20 137.212 19.304C137.608 18.608 138.148 18.068 138.832 17.684C139.528 17.288 140.314 17.09 141.19 17.09C142.606 17.09 143.722 17.462 144.538 18.206V12.698H146.806V26H144.61V24.992C144.118 25.448 143.608 25.778 143.08 25.982C142.552 26.174 141.922 26.27 141.19 26.27ZM141.748 24.488C142.396 24.488 142.972 24.314 143.476 23.966C143.98 23.618 144.334 23.15 144.538 22.562V20.816C144.346 20.228 143.992 19.76 143.476 19.412C142.972 19.052 142.396 18.872 141.748 18.872C140.932 18.872 140.26 19.136 139.732 19.664C139.204 20.192 138.94 20.87 138.94 21.698C138.94 22.526 139.204 23.198 139.732 23.714C140.26 24.23 140.932 24.488 141.748 24.488ZM160.151 26.27C159.143 26.27 158.255 26.09 157.487 25.73C156.731 25.358 156.143 24.83 155.723 24.146C155.303 23.45 155.093 22.628 155.093 21.68C155.093 20.756 155.297 19.952 155.705 19.268C156.125 18.572 156.719 18.038 157.487 17.666C158.255 17.282 159.143 17.09 160.151 17.09C161.159 17.09 162.041 17.282 162.797 17.666C163.565 18.038 164.159 18.572 164.579 19.268C164.999 19.952 165.209 20.756 165.209 21.68C165.209 22.628 164.999 23.45 164.579 24.146C164.159 24.83 163.565 25.358 162.797 25.73C162.041 26.09 161.159 26.27 160.151 26.27ZM160.151 24.488C160.979 24.488 161.639 24.23 162.131 23.714C162.623 23.186 162.869 22.508 162.869 21.68C162.869 20.804 162.623 20.12 162.131 19.628C161.651 19.124 160.991 18.872 160.151 18.872C159.311 18.872 158.645 19.124 158.153 19.628C157.673 20.12 157.433 20.804 157.433 21.68C157.433 22.508 157.679 23.186 158.171 23.714C158.663 24.23 159.323 24.488 160.151 24.488ZM167.002 17.36H169.198V18.53C169.606 18.038 170.092 17.678 170.656 17.45C171.22 17.21 171.814 17.09 172.438 17.09C173.602 17.09 174.472 17.408 175.048 18.044C175.624 18.668 175.912 19.502 175.912 20.546V26H173.644V20.762C173.644 19.502 173.056 18.872 171.88 18.872C171.364 18.872 170.878 18.998 170.422 19.25C169.966 19.49 169.582 19.856 169.27 20.348V26H167.002V17.36ZM187.949 26.27C187.001 26.27 186.281 26.006 185.789 25.478C185.297 24.95 185.051 24.206 185.051 23.246V19.088H183.755V17.36H185.051V14.768H187.319V17.36H189.389V19.088H187.319V22.958C187.319 23.51 187.421 23.906 187.625 24.146C187.829 24.374 188.201 24.488 188.741 24.488C189.113 24.488 189.479 24.404 189.839 24.236V25.964C189.323 26.168 188.693 26.27 187.949 26.27ZM191.453 12.698H193.721V18.458C194.537 17.546 195.593 17.09 196.889 17.09C198.053 17.09 198.923 17.408 199.499 18.044C200.075 18.668 200.363 19.502 200.363 20.546V26H198.095V20.762C198.095 19.502 197.507 18.872 196.331 18.872C195.815 18.872 195.329 18.998 194.873 19.25C194.417 19.49 194.033 19.856 193.721 20.348V26H191.453V12.698ZM207.299 26.27C205.691 26.27 204.419 25.868 203.483 25.064C202.547 24.26 202.079 23.138 202.079 21.698C202.079 20.282 202.493 19.16 203.321 18.332C204.149 17.504 205.331 17.09 206.867 17.09C207.875 17.09 208.733 17.282 209.441 17.666C210.161 18.05 210.701 18.578 211.061 19.25C211.421 19.91 211.601 20.666 211.601 21.518V22.562H204.239C204.395 23.846 205.511 24.488 207.587 24.488C208.139 24.488 208.703 24.44 209.279 24.344C209.855 24.248 210.359 24.116 210.791 23.948V25.694C210.383 25.862 209.855 26 209.207 26.108C208.571 26.216 207.935 26.27 207.299 26.27ZM209.459 21.014C209.435 20.33 209.189 19.802 208.721 19.43C208.265 19.058 207.635 18.872 206.831 18.872C206.039 18.872 205.415 19.064 204.959 19.448C204.503 19.832 204.263 20.354 204.239 21.014H209.459Z" fill="#F2F2F2"/>
<path d="M69.68 31.3668H72.632L79.328 48.1428H76.232L74.696 44.2788H67.592L66.08 48.1428H62.96L69.68 31.3668ZM73.856 41.7588L71.144 34.6308L68.432 41.7588H73.856ZM81.7213 36.6228H84.6493V38.0148C85.2733 37.4228 85.9533 36.9828 86.6893 36.6948C87.4253 36.4068 88.2653 36.2628 89.2093 36.2628C90.3773 36.2628 91.4173 36.5188 92.3293 37.0308C93.2573 37.5268 93.9773 38.2388 94.4893 39.1668C95.0173 40.0788 95.2812 41.1428 95.2812 42.3588C95.2812 43.5588 95.0173 44.6228 94.4893 45.5508C93.9773 46.4788 93.2573 47.2068 92.3293 47.7348C91.4173 48.2468 90.3773 48.5028 89.2093 48.5028C88.3293 48.5028 87.4973 48.3828 86.7133 48.1428C85.9453 47.8868 85.2893 47.5108 84.7453 47.0148V53.3988H81.7213V36.6228ZM88.4653 46.1268C89.5533 46.1268 90.4493 45.7748 91.1533 45.0708C91.8573 44.3668 92.2093 43.4628 92.2093 42.3588C92.2093 41.2548 91.8573 40.3588 91.1533 39.6708C90.4493 38.9828 89.5533 38.6388 88.4653 38.6388C87.6013 38.6388 86.8333 38.8708 86.1613 39.3348C85.4893 39.7988 85.0173 40.4228 84.7453 41.2068V43.5348C85.0013 44.3188 85.4653 44.9508 86.1373 45.4308C86.8253 45.8948 87.6013 46.1268 88.4653 46.1268ZM97.6822 36.6228H100.61V38.0148C101.234 37.4228 101.914 36.9828 102.65 36.6948C103.386 36.4068 104.226 36.2628 105.17 36.2628C106.338 36.2628 107.378 36.5188 108.29 37.0308C109.218 37.5268 109.938 38.2388 110.45 39.1668C110.978 40.0788 111.242 41.1428 111.242 42.3588C111.242 43.5588 110.978 44.6228 110.45 45.5508C109.938 46.4788 109.218 47.2068 108.29 47.7348C107.378 48.2468 106.338 48.5028 105.17 48.5028C104.29 48.5028 103.458 48.3828 102.674 48.1428C101.906 47.8868 101.25 47.5108 100.706 47.0148V53.3988H97.6822V36.6228ZM104.426 46.1268C105.514 46.1268 106.41 45.7748 107.114 45.0708C107.818 44.3668 108.17 43.4628 108.17 42.3588C108.17 41.2548 107.818 40.3588 107.114 39.6708C106.41 38.9828 105.514 38.6388 104.426 38.6388C103.562 38.6388 102.794 38.8708 102.122 39.3348C101.45 39.7988 100.978 40.4228 100.706 41.2068V43.5348C100.962 44.3188 101.426 44.9508 102.098 45.4308C102.786 45.8948 103.562 46.1268 104.426 46.1268ZM127.14 48.5028C126.148 48.5028 125.164 48.4068 124.188 48.2148C123.228 48.0388 122.436 47.7988 121.812 47.4948V44.8788C122.612 45.2628 123.452 45.5508 124.332 45.7428C125.212 45.9348 126.076 46.0308 126.924 46.0308C127.996 46.0308 128.812 45.8308 129.372 45.4308C129.932 45.0308 130.212 44.4788 130.212 43.7748C130.212 43.2788 130.084 42.8708 129.828 42.5508C129.572 42.2148 129.196 41.9268 128.7 41.6868C128.204 41.4308 127.444 41.1028 126.42 40.7028C124.852 40.0628 123.716 39.3508 123.012 38.5668C122.308 37.7828 121.956 36.8068 121.956 35.6388C121.956 34.7268 122.204 33.9188 122.7 33.2148C123.196 32.5108 123.892 31.9668 124.788 31.5828C125.684 31.1988 126.716 31.0068 127.884 31.0068C128.844 31.0068 129.692 31.0868 130.428 31.2468C131.18 31.3908 131.916 31.6228 132.636 31.9428V34.4868C131.244 33.8148 129.836 33.4788 128.412 33.4788C127.388 33.4788 126.596 33.6708 126.036 34.0548C125.476 34.4228 125.196 34.9508 125.196 35.6388C125.196 36.1348 125.324 36.5428 125.58 36.8628C125.836 37.1668 126.172 37.4308 126.588 37.6548C127.02 37.8628 127.788 38.1988 128.892 38.6628C130.012 39.1268 130.892 39.5828 131.532 40.0308C132.188 40.4788 132.676 41.0068 132.996 41.6148C133.332 42.2068 133.5 42.9348 133.5 43.7988C133.5 45.2868 132.964 46.4468 131.892 47.2788C130.82 48.0948 129.236 48.5028 127.14 48.5028ZM139.697 48.5028C138.433 48.5028 137.473 48.1508 136.817 47.4468C136.161 46.7428 135.833 45.7508 135.833 44.4708V38.9268H134.105V36.6228H135.833V33.1668H138.857V36.6228H141.617V38.9268H138.857V44.0868C138.857 44.8228 138.993 45.3508 139.265 45.6708C139.537 45.9748 140.033 46.1268 140.753 46.1268C141.249 46.1268 141.737 46.0148 142.217 45.7908V48.0948C141.529 48.3668 140.689 48.5028 139.697 48.5028ZM150.517 48.5028C149.173 48.5028 147.989 48.2628 146.965 47.7828C145.957 47.2868 145.173 46.5828 144.613 45.6708C144.053 44.7428 143.773 43.6468 143.773 42.3828C143.773 41.1508 144.045 40.0788 144.589 39.1668C145.149 38.2388 145.941 37.5268 146.965 37.0308C147.989 36.5188 149.173 36.2628 150.517 36.2628C151.861 36.2628 153.037 36.5188 154.045 37.0308C155.069 37.5268 155.861 38.2388 156.421 39.1668C156.981 40.0788 157.261 41.1508 157.261 42.3828C157.261 43.6468 156.981 44.7428 156.421 45.6708C155.861 46.5828 155.069 47.2868 154.045 47.7828C153.037 48.2628 151.861 48.5028 150.517 48.5028ZM150.517 46.1268C151.621 46.1268 152.501 45.7828 153.157 45.0948C153.813 44.3908 154.141 43.4868 154.141 42.3828C154.141 41.2148 153.813 40.3028 153.157 39.6468C152.517 38.9748 151.637 38.6388 150.517 38.6388C149.397 38.6388 148.509 38.9748 147.853 39.6468C147.213 40.3028 146.893 41.2148 146.893 42.3828C146.893 43.4868 147.221 44.3908 147.877 45.0948C148.533 45.7828 149.413 46.1268 150.517 46.1268ZM159.651 36.6228H162.579V38.4708C163.043 37.8468 163.699 37.3828 164.547 37.0788C165.411 36.7748 166.395 36.6228 167.499 36.6228V38.9268C166.331 38.9268 165.315 39.1108 164.451 39.4788C163.603 39.8308 163.011 40.3908 162.675 41.1588V48.1428H159.651V36.6228ZM175.178 48.5028C173.034 48.5028 171.338 47.9668 170.09 46.8948C168.842 45.8228 168.218 44.3268 168.218 42.4068C168.218 40.5188 168.77 39.0228 169.874 37.9188C170.978 36.8148 172.554 36.2628 174.602 36.2628C175.946 36.2628 177.09 36.5188 178.034 37.0308C178.994 37.5428 179.714 38.2468 180.194 39.1428C180.674 40.0228 180.914 41.0308 180.914 42.1668V43.5588H171.098C171.306 45.2708 172.794 46.1268 175.562 46.1268C176.298 46.1268 177.05 46.0628 177.818 45.9348C178.586 45.8068 179.258 45.6308 179.834 45.4068V47.7348C179.29 47.9588 178.586 48.1428 177.722 48.2868C176.874 48.4308 176.026 48.5028 175.178 48.5028ZM178.058 41.4948C178.026 40.5828 177.698 39.8788 177.074 39.3828C176.466 38.8868 175.626 38.6388 174.554 38.6388C173.498 38.6388 172.666 38.8948 172.058 39.4068C171.45 39.9188 171.13 40.6148 171.098 41.4948H178.058Z" fill="#F2F2F2"/>
</svg>
