<svg width="224" height="64" viewBox="0 0 224 64" fill="none" xmlns="http://www.w3.org/2000/svg">
<rect x="1" y="1" width="222" height="62" rx="6" fill="#121212" stroke="#E4E4E4" stroke-width="2"/>
<path d="M79.452 26.27C78.132 26.27 76.962 26.006 75.942 25.478C74.922 24.938 74.13 24.176 73.566 23.192C73.002 22.196 72.72 21.038 72.72 19.718C72.72 18.398 73.002 17.246 73.566 16.262C74.13 15.266 74.922 14.498 75.942 13.958C76.962 13.418 78.132 13.148 79.452 13.148C80.352 13.148 81.156 13.244 81.864 13.436C82.572 13.628 83.214 13.934 83.79 14.354V16.532C83.262 16.076 82.656 15.746 81.972 15.542C81.288 15.338 80.514 15.236 79.65 15.236C78.786 15.236 78 15.422 77.292 15.794C76.596 16.154 76.044 16.676 75.636 17.36C75.228 18.032 75.024 18.818 75.024 19.718C75.024 20.63 75.216 21.428 75.6 22.112C75.984 22.784 76.518 23.306 77.202 23.678C77.886 24.038 78.666 24.218 79.542 24.218C80.466 24.218 81.228 24.062 81.828 23.75V20.924H79.704V19.106H84.114V24.974C82.998 25.838 81.444 26.27 79.452 26.27ZM85.912 13.418H94.426V15.308H88.198V18.764H92.824V20.654H88.198V24.11H94.426V26H85.912V13.418ZM99.1326 15.308H95.3346V13.418H105.217V15.308H101.419V26H99.1326V15.308ZM113.141 13.418H115.427V26H113.141V13.418ZM120.666 15.308H116.868V13.418H126.75V15.308H122.952V26H120.666V15.308ZM140.992 26.27C139.732 26.27 138.592 26 137.572 25.46C136.564 24.908 135.766 24.134 135.178 23.138C134.602 22.142 134.314 21.002 134.314 19.718C134.314 18.434 134.602 17.294 135.178 16.298C135.766 15.302 136.564 14.528 137.572 13.976C138.592 13.424 139.732 13.148 140.992 13.148C142.24 13.148 143.368 13.424 144.376 13.976C145.396 14.528 146.194 15.302 146.77 16.298C147.358 17.294 147.652 18.434 147.652 19.718C147.652 21.002 147.358 22.142 146.77 23.138C146.194 24.122 145.396 24.89 144.376 25.442C143.368 25.994 142.24 26.27 140.992 26.27ZM140.992 24.2C141.796 24.2 142.528 24.02 143.188 23.66C143.848 23.288 144.37 22.766 144.754 22.094C145.15 21.41 145.348 20.618 145.348 19.718C145.348 18.83 145.156 18.05 144.772 17.378C144.388 16.694 143.866 16.166 143.206 15.794C142.546 15.422 141.808 15.236 140.992 15.236C140.176 15.236 139.432 15.422 138.76 15.794C138.1 16.166 137.578 16.694 137.194 17.378C136.81 18.05 136.618 18.83 136.618 19.718C136.618 20.618 136.81 21.41 137.194 22.094C137.59 22.766 138.118 23.288 138.778 23.66C139.45 24.02 140.188 24.2 140.992 24.2ZM149.457 13.418H151.617L157.503 22.184V13.418H159.789V26H157.629L151.743 17.216V26H149.457V13.418Z" fill="#F2F2F2"/>
<path d="M81.936 49.36C80.176 49.36 78.616 49.008 77.256 48.304C75.896 47.584 74.84 46.568 74.088 45.256C73.336 43.928 72.96 42.384 72.96 40.624C72.96 38.864 73.336 37.328 74.088 36.016C74.84 34.688 75.896 33.664 77.256 32.944C78.616 32.224 80.176 31.864 81.936 31.864C83.136 31.864 84.208 31.992 85.152 32.248C86.096 32.504 86.952 32.912 87.72 33.472V36.376C87.016 35.768 86.208 35.328 85.296 35.056C84.384 34.784 83.352 34.648 82.2 34.648C81.048 34.648 80 34.896 79.056 35.392C78.128 35.872 77.392 36.568 76.848 37.48C76.304 38.376 76.032 39.424 76.032 40.624C76.032 41.84 76.288 42.904 76.8 43.816C77.312 44.712 78.024 45.408 78.936 45.904C79.848 46.384 80.888 46.624 82.056 46.624C83.288 46.624 84.304 46.416 85.104 46V42.232H82.272V39.808H88.152V47.632C86.664 48.784 84.592 49.36 81.936 49.36ZM96.8134 49.36C95.4694 49.36 94.2854 49.12 93.2614 48.64C92.2534 48.144 91.4694 47.44 90.9094 46.528C90.3494 45.6 90.0694 44.504 90.0694 43.24C90.0694 42.008 90.3414 40.936 90.8854 40.024C91.4454 39.096 92.2374 38.384 93.2614 37.888C94.2854 37.376 95.4694 37.12 96.8134 37.12C98.1574 37.12 99.3334 37.376 100.341 37.888C101.365 38.384 102.157 39.096 102.717 40.024C103.277 40.936 103.557 42.008 103.557 43.24C103.557 44.504 103.277 45.6 102.717 46.528C102.157 47.44 101.365 48.144 100.341 48.64C99.3334 49.12 98.1574 49.36 96.8134 49.36ZM96.8134 46.984C97.9174 46.984 98.7974 46.64 99.4534 45.952C100.109 45.248 100.437 44.344 100.437 43.24C100.437 42.072 100.109 41.16 99.4534 40.504C98.8134 39.832 97.9334 39.496 96.8134 39.496C95.6934 39.496 94.8054 39.832 94.1494 40.504C93.5094 41.16 93.1894 42.072 93.1894 43.24C93.1894 44.344 93.5174 45.248 94.1734 45.952C94.8294 46.64 95.7094 46.984 96.8134 46.984ZM111.602 49.36C110.258 49.36 109.074 49.12 108.05 48.64C107.042 48.144 106.258 47.44 105.698 46.528C105.138 45.6 104.858 44.504 104.858 43.24C104.858 42.008 105.13 40.936 105.674 40.024C106.234 39.096 107.026 38.384 108.05 37.888C109.074 37.376 110.258 37.12 111.602 37.12C112.946 37.12 114.122 37.376 115.13 37.888C116.154 38.384 116.946 39.096 117.506 40.024C118.066 40.936 118.346 42.008 118.346 43.24C118.346 44.504 118.066 45.6 117.506 46.528C116.946 47.44 116.154 48.144 115.13 48.64C114.122 49.12 112.946 49.36 111.602 49.36ZM111.602 46.984C112.706 46.984 113.586 46.64 114.242 45.952C114.898 45.248 115.226 44.344 115.226 43.24C115.226 42.072 114.898 41.16 114.242 40.504C113.602 39.832 112.722 39.496 111.602 39.496C110.482 39.496 109.594 39.832 108.938 40.504C108.298 41.16 107.978 42.072 107.978 43.24C107.978 44.344 108.306 45.248 108.962 45.952C109.618 46.64 110.498 46.984 111.602 46.984ZM126.833 54.52C126.065 54.52 125.297 54.448 124.529 54.304C123.761 54.16 123.121 53.968 122.609 53.728V51.328C123.857 51.872 125.265 52.144 126.833 52.144C128.241 52.144 129.249 51.848 129.857 51.256C130.481 50.664 130.793 49.784 130.793 48.616V47.872C130.249 48.368 129.601 48.744 128.849 49C128.097 49.24 127.289 49.36 126.425 49.36C125.257 49.36 124.201 49.104 123.257 48.592C122.313 48.064 121.577 47.336 121.049 46.408C120.521 45.48 120.257 44.416 120.257 43.216C120.257 42 120.513 40.936 121.025 40.024C121.553 39.096 122.273 38.384 123.185 37.888C124.113 37.376 125.161 37.12 126.329 37.12C127.305 37.12 128.145 37.256 128.849 37.528C129.553 37.784 130.233 38.216 130.889 38.824V37.48H133.817V48.304C133.817 50.288 133.241 51.816 132.089 52.888C130.953 53.976 129.201 54.52 126.833 54.52ZM127.073 46.984C127.937 46.984 128.705 46.752 129.377 46.288C130.065 45.808 130.537 45.176 130.793 44.392V42.064C130.521 41.28 130.049 40.656 129.377 40.192C128.705 39.728 127.937 39.496 127.073 39.496C125.985 39.496 125.089 39.84 124.385 40.528C123.681 41.216 123.329 42.112 123.329 43.216C123.329 44.32 123.681 45.224 124.385 45.928C125.089 46.632 125.985 46.984 127.073 46.984ZM136.698 31.264H139.722V49H136.698V31.264ZM149.084 49.36C146.94 49.36 145.244 48.824 143.996 47.752C142.748 46.68 142.124 45.184 142.124 43.264C142.124 41.376 142.676 39.88 143.78 38.776C144.884 37.672 146.46 37.12 148.508 37.12C149.852 37.12 150.996 37.376 151.94 37.888C152.9 38.4 153.62 39.104 154.1 40C154.58 40.88 154.82 41.888 154.82 43.024V44.416H145.004C145.212 46.128 146.7 46.984 149.468 46.984C150.204 46.984 150.956 46.92 151.724 46.792C152.492 46.664 153.164 46.488 153.74 46.264V48.592C153.196 48.816 152.492 49 151.628 49.144C150.78 49.288 149.932 49.36 149.084 49.36ZM151.964 42.352C151.932 41.44 151.604 40.736 150.98 40.24C150.372 39.744 149.532 39.496 148.46 39.496C147.404 39.496 146.572 39.752 145.964 40.264C145.356 40.776 145.036 41.472 145.004 42.352H151.964ZM165.878 32.224H172.598C174.438 32.224 175.91 32.712 177.014 33.688C178.134 34.664 178.694 36 178.694 37.696C178.694 39.456 178.142 40.8 177.038 41.728C175.934 42.64 174.446 43.096 172.574 43.096H168.926V49H165.878V32.224ZM172.214 40.576C174.502 40.576 175.646 39.616 175.646 37.696C175.646 35.728 174.502 34.744 172.214 34.744H168.926V40.576H172.214ZM180.62 31.264H183.644V49H180.62V31.264ZM190.75 49.36C189.374 49.36 188.246 49 187.366 48.28C186.486 47.544 186.046 46.56 186.046 45.328C186.046 44.048 186.462 43.048 187.294 42.328C188.126 41.608 189.294 41.248 190.798 41.248C192.254 41.248 193.51 41.544 194.566 42.136V41.824C194.566 41.008 194.31 40.416 193.798 40.048C193.302 39.68 192.494 39.496 191.374 39.496C190.67 39.496 189.974 39.568 189.286 39.712C188.598 39.84 187.99 40.024 187.462 40.264V37.888C187.942 37.664 188.582 37.48 189.382 37.336C190.198 37.192 190.982 37.12 191.734 37.12C193.734 37.12 195.214 37.552 196.174 38.416C197.134 39.264 197.614 40.448 197.614 41.968V49H194.758V47.872C194.262 48.352 193.694 48.72 193.054 48.976C192.43 49.232 191.662 49.36 190.75 49.36ZM191.494 47.152C192.166 47.152 192.774 47.024 193.318 46.768C193.862 46.496 194.278 46.128 194.566 45.664V44.392C193.686 43.768 192.678 43.456 191.542 43.456C189.926 43.456 189.118 44.08 189.118 45.328C189.118 45.936 189.318 46.392 189.718 46.696C190.134 47 190.726 47.152 191.494 47.152ZM202.059 53.752C201.643 53.752 201.203 53.72 200.739 53.656C200.291 53.608 199.939 53.536 199.683 53.44V51.136C200.083 51.296 200.579 51.376 201.171 51.376C201.779 51.376 202.235 51.24 202.539 50.968C202.843 50.696 203.107 50.264 203.331 49.672L203.787 48.472L198.819 37.48H201.867L205.419 45.88L208.755 37.48H211.779L206.739 50.032C206.227 51.296 205.603 52.232 204.867 52.84C204.147 53.448 203.211 53.752 202.059 53.752Z" fill="#F2F2F2"/>
<g clip-path="url(#clip0)">
<path d="M48.4735 30.1791L42.546 27.2449L34.4249 32.4459L42.5458 37.6469L48.4935 34.7026C49.4209 34.2197 49.9743 33.3758 49.9743 32.446C49.9743 31.5162 49.4208 30.6724 48.4735 30.1791Z" fill="#FF9100"/>
<path d="M36.4781 32.446C36.4692 32.4558 29.2978 40.359 29.292 40.3654L19.9499 46.6716C19.375 46.1788 19.026 45.5102 19.026 44.7709V20.0774C19.026 19.3383 19.375 18.6695 19.9499 18.1768L29.292 24.5265C29.2978 24.5329 36.4692 32.4362 36.4781 32.446Z" fill="#25D9F8"/>
<path d="M36.4781 32.4461L34.4249 34.7163V30.1758L36.4781 32.4461Z" fill="#00C0F1"/>
<path d="M42.5557 27.2368L36.4781 32.4461L19.95 18.1769C20.1552 18.0185 20.3606 17.8953 20.5864 17.7721C21.5719 17.297 22.7423 17.3145 23.7074 17.8249L34.425 23.2243L42.5557 27.2368Z" fill="#7FE881"/>
<path d="M42.5556 27.2368L36.4781 32.4461L34.4249 30.6862V23.2244L42.5556 27.2368Z" fill="#5BC980"/>
<path d="M42.5557 37.6552L34.425 41.6678L23.6868 47.0413C23.1941 47.2876 22.6602 47.4284 22.1058 47.4284C21.5925 47.4284 21.0792 47.3052 20.5864 47.0764C20.3606 46.9532 20.1552 46.8301 19.95 46.6717L36.4781 32.446L42.5557 37.6552Z" fill="#FF637B"/>
<path d="M42.5556 37.6552L34.4249 41.6678V34.2059L36.4781 32.446L42.5556 37.6552Z" fill="#E63950"/>
</g>
<defs>
<clipPath id="clip0">
<rect width="35" height="30" fill="white" transform="translate(17 17.4285)"/>
</clipPath>
</defs>
</svg>
