<svg width="60" height="60" viewBox="0 0 60 60" fill="none" xmlns="http://www.w3.org/2000/svg">
<path d="M35.7422 30C35.7422 33.1714 33.1714 35.7422 30 35.7422C26.8286 35.7422 24.2578 33.1714 24.2578 30C24.2578 26.8286 26.8286 24.2578 30 24.2578C33.1714 24.2578 35.7422 26.8286 35.7422 30Z" fill="#F2F2F2"/>
<path d="M43.4289 19.8403C43.1529 19.0923 42.7125 18.4153 42.1403 17.8596C41.5846 17.2874 40.908 16.847 40.1595 16.571C39.5525 16.3352 38.6407 16.0546 36.9611 15.9781C35.1443 15.8953 34.5995 15.8774 29.9999 15.8774C25.3999 15.8774 24.8551 15.8948 23.0387 15.9777C21.3592 16.0546 20.4469 16.3352 19.8403 16.571C19.0919 16.847 18.4149 17.2874 17.8596 17.8596C17.2874 18.4153 16.847 19.0919 16.5705 19.8403C16.3348 20.4473 16.0542 21.3596 15.9777 23.0392C15.8949 24.8556 15.877 25.4003 15.877 30.0004C15.877 34.6 15.8949 35.1447 15.9777 36.9616C16.0542 38.6411 16.3348 39.553 16.5705 40.16C16.847 40.9084 17.2869 41.585 17.8591 42.1407C18.4149 42.7129 19.0914 43.1533 19.8399 43.4293C20.4469 43.6655 21.3592 43.9461 23.0387 44.0226C24.8551 44.1054 25.3994 44.1228 29.9995 44.1228C34.6 44.1228 35.1447 44.1054 36.9607 44.0226C38.6402 43.9461 39.5525 43.6655 40.1595 43.4293C41.6619 42.8498 42.8494 41.6624 43.4289 40.16C43.6646 39.553 43.9452 38.6411 44.0222 36.9616C44.105 35.1447 44.1224 34.6 44.1224 30.0004C44.1224 25.4003 44.105 24.8556 44.0222 23.0392C43.9457 21.3596 43.6651 20.4473 43.4289 19.8403ZM29.9999 38.8457C25.1142 38.8457 21.1537 34.8856 21.1537 29.9999C21.1537 25.1142 25.1142 21.1541 29.9999 21.1541C34.8852 21.1541 38.8458 25.1142 38.8458 29.9999C38.8458 34.8856 34.8852 38.8457 29.9999 38.8457ZM39.1955 22.8716C38.0538 22.8716 37.1282 21.946 37.1282 20.8044C37.1282 19.6627 38.0538 18.7371 39.1955 18.7371C40.3372 18.7371 41.2628 19.6627 41.2628 20.8044C41.2623 21.946 40.3372 22.8716 39.1955 22.8716Z" fill="#F2F2F2"/>
<path d="M30 0C13.434 0 0 13.434 0 30C0 46.566 13.434 60 30 60C46.566 60 60 46.566 60 30C60 13.434 46.566 0 30 0ZM47.1227 37.1022C47.0393 38.936 46.7477 40.188 46.322 41.2839C45.4271 43.5979 43.5979 45.4271 41.2839 46.322C40.1884 46.7477 38.936 47.0389 37.1027 47.1227C35.2657 47.2064 34.6788 47.2266 30.0005 47.2266C25.3217 47.2266 24.7353 47.2064 22.8978 47.1227C21.0645 47.0389 19.812 46.7477 18.7166 46.322C17.5667 45.8894 16.5257 45.2115 15.6651 44.3349C14.789 43.4747 14.111 42.4333 13.6784 41.2839C13.2527 40.1884 12.9611 38.936 12.8778 37.1027C12.7931 35.2652 12.7734 34.6783 12.7734 30C12.7734 25.3217 12.7931 24.7348 12.8773 22.8978C12.9607 21.064 13.2518 19.812 13.6775 18.7161C14.1101 17.5667 14.7885 16.5253 15.6651 15.6651C16.5253 14.7885 17.5667 14.1106 18.7161 13.678C19.812 13.2523 21.064 12.9611 22.8978 12.8773C24.7348 12.7936 25.3217 12.7734 30 12.7734C34.6783 12.7734 35.2652 12.7936 37.1022 12.8778C38.936 12.9611 40.188 13.2523 41.2839 13.6775C42.4333 14.1101 43.4747 14.7885 44.3353 15.6651C45.2115 16.5257 45.8899 17.5667 46.322 18.7161C46.7482 19.812 47.0393 21.064 47.1231 22.8978C47.2069 24.7348 47.2266 25.3217 47.2266 30C47.2266 34.6783 47.2069 35.2652 47.1227 37.1022Z" fill="#F2F2F2"/>
</svg>
