<svg width="300" height="100" viewBox="0 0 300 100" fill="none" xmlns="http://www.w3.org/2000/svg">
<g clip-path="url(#clip0)">
<path d="M246.424 5.4795L169.865 7.60585L149.168 7.82891C144.022 6.66907 139.598 5.70998 136.025 5.052L127.833 0.535339L246.424 5.4795Z" fill="#4B545A"/>
<path d="M194.758 21.9327C196.323 22.3643 197.855 22.9198 199.339 23.5944L194.281 23.6316C187.208 21.0294 174.759 17.877 169.125 16.483L169.837 16.5127H169.873C176.725 17.877 190.994 20.7654 194.758 21.9327Z" fill="#4B545A"/>
<path d="M283.363 21.8955L237.471 23.1669L202.21 23.5386C201.283 22.2524 199.716 21.0146 198.007 19.944C197.979 19.9394 197.953 19.9265 197.932 19.9068C197.173 19.6094 196.304 19.2933 195.293 18.9365L195.239 18.8994C193.626 18.3231 192.034 17.8065 190.406 17.3269L213.682 18.2822L283.363 21.8955Z" fill="#4B545A"/>
<path d="M102.14 31.2263C102.14 31.2263 99.7212 31.7691 97.6412 32.3973C98.4889 31.3193 101.559 27.52 102.727 27.1929C104.084 26.8211 111.92 27.1929 111.92 27.1929C111.92 27.1929 103.863 25.6836 102.093 26.7989C100.323 27.9141 96.5869 32.7132 96.5869 32.7132H96.6617C96.4943 32.7727 96.334 32.821 96.1809 32.8805C96.1809 32.8805 99.1514 27.6761 101.858 26.1632C104.565 24.6502 114.299 26.5349 115.46 28.2709C116.622 30.007 109.911 32.5795 102.14 31.2263Z" fill="#4B545A"/>
<path d="M259.728 40.5198C259.798 40.2967 259.812 40.0582 259.767 39.828C259.722 39.5978 259.62 39.3839 259.471 39.2075C258.652 38.0923 256.39 37.189 254.581 36.65C253.819 36.2658 253.025 35.9548 252.209 35.7206C251.332 35.4593 250.434 35.2814 249.527 35.1891H249.491C249.071 35.1444 248.619 35.0998 248.181 35.0924L246.147 35.0441H245.855L187.215 33.7875C188.741 33.5703 190.252 33.2499 191.738 32.8284C193.128 32.4455 194.49 31.9585 195.813 31.3712C196.738 30.9544 197.552 30.3099 198.187 29.4929C198.821 28.6759 199.257 27.7107 199.456 26.6799V26.6427C199.595 25.8992 197.497 24.8285 194.26 23.6242C187.186 21.022 174.738 17.8696 169.103 16.4755L166.71 15.8882C167.326 16.0108 168.416 16.2191 169.83 16.5053H169.865C176.704 17.877 190.972 20.7654 194.737 21.9253C196.302 22.3568 197.833 22.9123 199.317 23.587C201.248 24.5052 202.088 25.5646 201.775 27.1892C202.758 25.9141 202.993 24.6836 202.277 23.6687C202.242 23.6278 202.224 23.5907 202.188 23.5535C201.262 22.2673 199.695 21.0294 197.985 19.9587C197.957 19.9542 197.931 19.9412 197.91 19.9216C197.152 19.6242 196.283 19.3082 195.271 18.9514L195.218 18.9142C193.604 18.338 192.012 17.8213 190.385 17.3417C187.361 16.4049 184.298 15.6205 181.195 14.9662C169.032 12.3939 158.044 9.82139 149.14 7.82886C143.993 6.66903 139.57 5.70994 135.997 5.05195C133.73 4.58457 131.44 4.24579 129.137 4.03709C123.887 3.69509 113.523 7.73221 105.63 13.1559C101.865 15.7395 92.2485 23.7171 91.1551 25.9029C90.2967 27.5795 91.1551 29.4717 91.96 30.8284C92.1745 31.2026 92.4125 31.5615 92.6724 31.9028C93.7088 31.9028 94.7453 31.9326 95.7996 31.9697L97.9651 31.9995C98.2714 31.9995 98.5991 32.0292 98.9089 32.0329C103.618 32.1222 108.269 32.23 112.743 32.3154C137.08 32.8694 156.655 33.4083 156.655 33.4083L155.195 35.3154L54.3981 35.0292C37.8397 35.4678 29.3984 35.9771 26.0005 36.6276C14.368 38.8581 9.73774 43.9398 0 51.7463C0 51.7463 6.89905 32.4716 33.4802 31.4642C44.1012 31.0701 53.8817 31.23 77.6455 31.6426C79.5902 29.1631 80.965 28.256 83.7289 25.7171C88.6868 21.1409 113.263 1.78806 126.619 0.0892079C128.55 -0.144989 131.837 0.0892079 136.083 0.706298L136.902 0.832691C145.318 2.07802 157.268 4.66534 169.865 7.60581C185.16 11.1708 201.451 15.2859 213.675 18.2971C221.995 20.3379 228.427 21.8547 231.405 22.3379C233.399 22.6502 235.433 22.929 237.46 23.1669C248.626 24.4717 259.443 24.613 259.443 24.613L253.594 33.5794L253.687 33.6203C253.73 33.6264 253.772 33.6389 253.812 33.6574C254.55 33.9062 255.276 34.1967 255.984 34.5273C256.64 34.8204 257.278 35.153 257.897 35.5235C259.411 36.438 260.885 37.6723 261.373 39.2001C261.425 39.2882 261.461 39.3851 261.48 39.4864C261.551 39.7912 261.595 40.1023 261.612 40.4157C260.622 43.1368 259.491 45.7999 258.225 48.3932C258.673 45.9509 259.072 43.4714 259.258 41.9584V41.7466C259.461 41.2632 259.649 40.8432 259.728 40.5198Z" fill="#4B545A"/>
<path d="M300 38.0105L262.11 39.189L258.98 39.2187C257.957 38.3712 256.095 37.4492 254.581 36.6499C253.819 36.2658 253.025 35.9548 252.209 35.7206L252.49 35.3154L258.25 35.5533L300 38.0105Z" fill="#33ABDA"/>
<path d="M280.354 51.9508L256.365 52.2184H254.62C254.809 51.8467 255.016 51.3895 255.24 50.9174L256.985 50.9843L280.354 51.9508Z" fill="#33ABDA"/>
<path d="M262.112 39.189C261.959 39.5309 261.792 39.9324 261.621 40.4157C260.628 43.1369 259.495 45.8 258.226 48.3932C257.774 49.356 257.347 50.252 256.973 50.9954C256.748 51.4452 256.542 51.8616 256.353 52.2184C255.997 53.0103 255.719 53.501 255.719 53.501L253.913 53.7575C253.913 53.7575 254.195 53.1739 254.626 52.2297C254.814 51.8579 255.021 51.4006 255.245 50.9285C256.499 48.1963 258.337 44.1257 259.281 41.7466C259.466 41.2596 259.637 40.8432 259.733 40.5198C259.753 40.4659 259.766 40.4098 259.772 40.3525C259.772 39.9807 259.473 39.6091 258.985 39.2373C257.963 38.3897 256.1 37.4678 254.586 36.6685C253.824 36.2845 253.03 35.9733 252.214 35.7392L252.492 35.3154L253.596 33.5794L253.689 33.6203C253.732 33.6264 253.774 33.6389 253.813 33.6574L253.977 33.7169C254.159 33.795 254.394 33.8953 254.69 33.9957C255.046 34.1519 255.505 34.3303 255.993 34.5273C256.706 34.8024 257.475 35.1742 258.251 35.5459C259.84 36.3303 261.375 37.189 262.023 37.5942C262.671 37.9994 262.447 38.3972 262.112 39.189Z" fill="#33ABDA"/>
<path d="M36.4751 44.3281H42.4151L54.5151 76.4115L66.6151 44.3281H72.5551L57.2101 84.375H51.8201L36.4751 44.3281ZM82.2695 85.2344C79.0795 85.2344 76.5128 84.3941 74.5695 82.7135C72.6628 80.9948 71.7095 78.6841 71.7095 75.7812C71.7095 72.7257 72.6261 70.3768 74.4595 68.7344C76.3295 67.0539 78.9695 66.2135 82.3795 66.2135C86.0095 66.2135 89.0895 66.9774 91.6195 68.5052V67.0729C91.6195 64.8958 90.9778 63.2917 89.6945 62.2604C88.4478 61.1909 86.4678 60.6562 83.7545 60.6562C82.1411 60.6562 80.5645 60.8281 79.0245 61.1719C77.5211 61.4774 76.1645 61.9167 74.9545 62.4896V57.7917C76.0545 57.257 77.4845 56.8368 79.2445 56.5312C81.0045 56.1875 82.7095 56.0156 84.3595 56.0156C88.7228 56.0156 91.9495 57.0278 94.0395 59.0521C96.1661 61.0382 97.2295 63.8073 97.2295 67.3594V84.375H92.0045V81.2812C90.8678 82.5799 89.5111 83.5729 87.9345 84.2604C86.3945 84.9097 84.5061 85.2344 82.2695 85.2344ZM83.6445 80.8229C85.4045 80.8229 86.9995 80.4601 88.4295 79.7344C89.8595 79.0086 90.9228 77.9966 91.6195 76.6979V72.974C89.2361 71.3698 86.5778 70.5677 83.6445 70.5677C81.5178 70.5677 79.9228 71.007 78.8595 71.8854C77.8328 72.7257 77.3195 74.0243 77.3195 75.7812C77.3195 79.1424 79.4278 80.8229 83.6445 80.8229ZM113.052 85.2344C111.219 85.2344 109.276 84.9861 107.222 84.4896C105.169 84.0312 103.556 83.401 102.382 82.5989V77.6719C103.812 78.5503 105.462 79.276 107.332 79.8489C109.202 80.3836 111.017 80.651 112.777 80.651C114.757 80.651 116.206 80.4028 117.122 79.9062C118.039 79.4097 118.497 78.6076 118.497 77.5C118.497 76.6597 118.277 75.9913 117.837 75.4948C117.434 74.9601 116.719 74.4826 115.692 74.0625C114.702 73.6424 113.199 73.1458 111.182 72.5729C109.019 71.9236 107.296 71.2743 106.012 70.625C104.766 69.9375 103.812 69.0781 103.152 68.0469C102.529 67.0156 102.217 65.6788 102.217 64.0365C102.217 61.401 103.207 59.4149 105.187 58.0781C107.204 56.7031 109.899 56.0156 113.272 56.0156C115.032 56.0156 116.756 56.1875 118.442 56.5312C120.129 56.875 121.486 57.3524 122.512 57.9635V62.776C121.449 62.1268 120.129 61.6111 118.552 61.2292C117.012 60.8472 115.436 60.6562 113.822 60.6562C111.879 60.6562 110.394 60.9045 109.367 61.401C108.341 61.8976 107.827 62.776 107.827 64.0365C107.827 64.8385 108.047 65.4878 108.487 65.9844C108.927 66.4809 109.624 66.9201 110.577 67.3021C111.567 67.6458 113.126 68.1042 115.252 68.6771C118.589 69.632 120.899 70.7586 122.182 72.0573C123.502 73.3559 124.162 75.151 124.162 77.4427C124.162 79.8107 123.227 81.7013 121.357 83.1146C119.487 84.5278 116.719 85.2344 113.052 85.2344ZM139.596 85.2344C136.919 85.2344 134.847 84.4323 133.381 82.8281C131.951 81.224 131.236 78.9514 131.236 76.0104V61.3437H127.221V56.875H131.236V48.625H136.846V56.875H143.336V61.3437H136.846V75.6094C136.846 77.4427 137.176 78.7413 137.836 79.5052C138.532 80.2691 139.779 80.651 141.576 80.651C142.639 80.651 143.702 80.4028 144.766 79.9062V84.4896C143.372 84.9861 141.649 85.2344 139.596 85.2344Z" fill="#33ABDA"/>
<path d="M149.992 56.875H155.382V61.8021C156.482 60.1215 158.022 58.8802 160.002 58.0781C162.019 57.276 164.347 56.875 166.987 56.875V61.401C164.164 61.401 161.744 61.8784 159.727 62.8333C157.71 63.7882 156.317 65.2969 155.547 67.3594V84.375H149.992V56.875ZM175.205 51.4896C174.288 51.4896 173.518 51.1649 172.895 50.5156C172.271 49.8663 171.96 49.0643 171.96 48.1094C171.96 47.1545 172.271 46.3524 172.895 45.7031C173.518 45.0538 174.288 44.7291 175.205 44.7291C176.158 44.7291 176.946 45.0538 177.57 45.7031C178.23 46.3524 178.56 47.1545 178.56 48.1094C178.56 49.0643 178.23 49.8663 177.57 50.5156C176.946 51.1649 176.158 51.4896 175.205 51.4896ZM172.4 56.875H178.065V84.375H172.4V56.875ZM198.47 85.2343C195.83 85.2343 193.446 84.6424 191.32 83.4583C189.23 82.2361 187.58 80.5364 186.37 78.3593C185.196 76.144 184.61 73.5851 184.61 70.6823C184.61 67.8177 185.196 65.2778 186.37 63.0625C187.58 60.8472 189.23 59.1284 191.32 57.9062C193.446 56.6458 195.83 56.0156 198.47 56.0156C203.236 56.0156 206.848 57.5242 209.305 60.5416V42.0364H214.86V84.375H209.47V80.3646C208.003 82.0451 206.39 83.2864 204.63 84.0885C202.906 84.8524 200.853 85.2343 198.47 85.2343ZM199.735 80.651C202.008 80.651 203.988 80.0399 205.675 78.8177C207.398 77.5573 208.608 75.8767 209.305 73.776V67.5885C208.681 65.4878 207.49 63.8073 205.73 62.5469C204.006 61.2864 202.008 60.6562 199.735 60.6562C197.938 60.6562 196.306 61.0763 194.84 61.9166C193.41 62.757 192.273 63.9409 191.43 65.4687C190.623 66.9965 190.22 68.7344 190.22 70.6823C190.22 72.6302 190.623 74.368 191.43 75.8958C192.273 77.4236 193.41 78.6076 194.84 79.4479C196.306 80.25 197.938 80.651 199.735 80.651ZM236.538 85.2343C231.662 85.2343 227.83 83.9739 225.043 81.4531C222.293 78.894 220.918 75.3038 220.918 70.6823C220.918 66.1753 222.147 62.6041 224.603 59.9687C227.097 57.3333 230.635 56.0156 235.218 56.0156C238.262 56.0156 240.847 56.6267 242.973 57.8489C245.1 59.033 246.695 60.6945 247.758 62.8333C248.858 64.934 249.408 67.3403 249.408 70.0521V72.9166H226.198C226.382 75.5138 227.427 77.4617 229.333 78.7604C231.277 80.0208 233.898 80.651 237.198 80.651C238.885 80.651 240.59 80.4982 242.313 80.1927C244.037 79.8489 245.558 79.4097 246.878 78.875V83.5156C245.705 84.0122 244.147 84.4132 242.203 84.7187C240.297 85.0625 238.408 85.2343 236.538 85.2343ZM244.183 68.8489C244.11 66.2517 243.285 64.2465 241.708 62.8333C240.168 61.382 237.968 60.6562 235.108 60.6562C232.322 60.6562 230.158 61.401 228.618 62.8906C227.078 64.3802 226.272 66.3663 226.198 68.8489H244.183Z" fill="#4B545A"/>
</g>
<defs>
<clipPath id="clip0">
<path d="M0 0H270C286.569 0 300 13.4315 300 30V70C300 86.5685 286.569 100 270 100H0V0Z" fill="white"/>
</clipPath>
</defs>
</svg>
