<svg width="240" height="80" viewBox="0 0 240 80" fill="none" xmlns="http://www.w3.org/2000/svg">
<g clip-path="url(#clip0)">
<path d="M197.139 4.38355L135.892 6.08463L119.334 6.26307C115.218 5.33521 111.678 4.56793 108.82 4.04155L102.266 0.428223L197.139 4.38355Z" fill="white"/>
<path d="M155.806 17.546C157.058 17.8913 158.284 18.3357 159.471 18.8754L155.425 18.9051C149.766 16.8234 139.807 14.3014 135.3 13.1863L135.87 13.21H135.898C141.38 14.3014 152.795 16.6122 155.806 17.546Z" fill="white"/>
<path d="M226.69 17.5165L189.977 18.5336L161.768 18.831C161.026 17.802 159.773 16.8117 158.406 15.9552C158.383 15.9516 158.362 15.9412 158.346 15.9255C157.738 15.6876 157.043 15.4347 156.234 15.1492L156.191 15.1196C154.901 14.6586 153.627 14.2452 152.325 13.8616L170.946 14.6258L226.69 17.5165Z" fill="white"/>
<path d="M81.7121 24.981C81.7121 24.981 79.7769 25.4153 78.1129 25.9178C78.7911 25.0554 81.2473 22.016 82.1817 21.7543C83.2673 21.4569 89.536 21.7543 89.536 21.7543C89.536 21.7543 83.0905 20.5469 81.6745 21.4391C80.2585 22.3313 77.2695 26.1706 77.2695 26.1706H77.3293C77.1954 26.2182 77.0672 26.2568 76.9447 26.3044C76.9447 26.3044 79.3211 22.1409 81.4865 20.9306C83.6521 19.7202 91.4392 21.2279 92.368 22.6168C93.2976 24.0056 87.9289 26.0636 81.7121 24.981Z" fill="white"/>
<path d="M207.782 32.4158C207.838 32.2373 207.85 32.0466 207.814 31.8624C207.778 31.6782 207.696 31.5071 207.577 31.366C206.922 30.4738 205.112 29.7512 203.665 29.32C203.055 29.0127 202.42 28.7638 201.767 28.5765C201.066 28.3674 200.347 28.2251 199.622 28.1512H199.593C199.257 28.1155 198.895 28.0798 198.545 28.0739L196.918 28.0352H196.684L149.772 27.03C150.993 26.8562 152.202 26.5999 153.39 26.2627C154.502 25.9564 155.592 25.5668 156.65 25.097C157.39 24.7635 158.042 24.2479 158.55 23.5943C159.057 22.9407 159.406 22.1686 159.565 21.3439V21.3142C159.676 20.7193 157.998 19.8628 155.408 18.8993C149.749 16.8176 139.79 14.2957 135.282 13.1804L133.368 12.7106C133.861 12.8087 134.733 12.9752 135.864 13.2042H135.892C141.363 14.3016 152.778 16.6123 155.79 17.5402C157.042 17.8854 158.266 18.3298 159.454 18.8696C160.998 19.6042 161.67 20.4517 161.42 21.7513C162.206 20.7312 162.394 19.7469 161.822 18.935C161.794 18.9022 161.779 18.8726 161.75 18.8428C161.01 17.8138 159.756 16.8235 158.388 15.967C158.366 15.9633 158.345 15.953 158.328 15.9372C157.722 15.6993 157.026 15.4466 156.217 15.1611L156.174 15.1313C154.883 14.6704 153.61 14.257 152.308 13.8733C149.889 13.1239 147.438 12.4964 144.956 11.973C135.226 9.91508 126.435 7.85712 119.312 6.26309C115.194 5.33522 111.656 4.56795 108.798 4.04156C106.984 3.66766 105.152 3.39663 103.31 3.22967C99.1096 2.95608 90.8184 6.18577 84.504 10.5247C81.492 12.5916 73.7988 18.9737 72.9241 20.7223C72.2374 22.0636 72.9241 23.5773 73.568 24.6627C73.7396 24.9621 73.93 25.2492 74.1379 25.5222C74.967 25.5222 75.7962 25.5461 76.6397 25.5757L78.3721 25.5996C78.6171 25.5996 78.8793 25.6233 79.1271 25.6263C82.8944 25.6977 86.6152 25.784 90.1944 25.8523C109.664 26.2955 125.324 26.7267 125.324 26.7267L124.156 28.2523L43.5185 28.0233C30.2718 28.3742 23.5187 28.7817 20.8004 29.3021C11.4944 31.0865 7.79019 35.1518 0 41.3971C0 41.3971 5.51924 25.9772 26.7842 25.1713C35.281 24.8561 43.1054 24.984 62.1164 25.3141C63.6722 23.3305 64.772 22.6048 66.9831 20.5737C70.9494 16.9127 90.6104 1.43045 101.295 0.0713663C102.84 -0.115992 105.47 0.0713663 108.866 0.565038L109.522 0.666153C116.254 1.66242 125.814 3.73227 135.892 6.08465C148.128 8.93667 161.161 12.2287 170.94 14.6377C177.596 16.2703 182.742 17.4837 185.124 17.8703C186.719 18.1202 188.346 18.3432 189.968 18.5335C198.901 19.5773 207.554 19.6904 207.554 19.6904L202.875 26.8635L202.95 26.8962C202.984 26.9011 203.018 26.9111 203.05 26.9259C203.64 27.125 204.221 27.3573 204.787 27.6218C205.312 27.8563 205.822 28.1224 206.318 28.4188C207.529 29.1504 208.708 30.1378 209.098 31.3601C209.14 31.4306 209.169 31.5081 209.184 31.5891C209.241 31.833 209.276 32.0818 209.29 32.3326C208.498 34.5094 207.593 36.6399 206.58 38.7146C206.938 36.7607 207.258 34.7771 207.406 33.5667V33.3972C207.569 33.0106 207.719 32.6746 207.782 32.4158Z" fill="white"/>
<path d="M240 30.4083L209.688 31.351L207.184 31.3748C206.366 30.6968 204.876 29.9592 203.665 29.3198C203.055 29.0125 202.42 28.7637 201.767 28.5764L201.992 28.2522L206.6 28.4425L240 30.4083Z" fill="#2F2E41"/>
<path d="M224.283 41.5606L205.092 41.7747H203.696C203.847 41.4773 204.013 41.1116 204.192 40.7339L205.588 40.7874L224.283 41.5606Z" fill="#2F2E41"/>
<path d="M209.69 31.3512C209.567 31.6248 209.434 31.9459 209.297 32.3326C208.502 34.5095 207.596 36.64 206.581 38.7146C206.219 39.4849 205.878 40.2016 205.578 40.7964C205.398 41.1562 205.234 41.4893 205.082 41.7748C204.798 42.4083 204.575 42.8009 204.575 42.8009L203.13 43.006C203.13 43.006 203.356 42.5391 203.701 41.7838C203.851 41.4864 204.017 41.1205 204.196 40.7429C205.199 38.557 206.67 35.3006 207.425 33.3973C207.573 33.0077 207.71 32.6746 207.786 32.4159C207.802 32.3728 207.813 32.3279 207.818 32.282C207.818 31.9846 207.578 31.6873 207.188 31.3899C206.37 30.7118 204.88 29.9743 203.669 29.3349C203.059 29.0276 202.424 28.7787 201.771 28.5914L201.994 28.2524L202.877 26.8635L202.951 26.8963C202.986 26.9011 203.019 26.9111 203.05 26.9259L203.182 26.9735C203.327 27.036 203.515 27.1163 203.752 27.1966C204.037 27.3215 204.404 27.4643 204.794 27.6219C205.365 27.8419 205.98 28.1394 206.601 28.4368C207.872 29.0643 209.1 29.7512 209.618 30.0754C210.137 30.3995 209.958 30.7178 209.69 31.3512Z" fill="#2F2E41"/>
<path d="M29.1801 35.4624H33.9321L43.6121 61.1291L53.2921 35.4624H58.0441L45.7681 67.4999H41.4561L29.1801 35.4624ZM65.8156 68.1874C63.2636 68.1874 61.2102 67.5151 59.6556 66.1707C58.1302 64.7957 57.3676 62.9471 57.3676 60.6249C57.3676 58.1805 58.1009 56.3013 59.5676 54.9874C61.0636 53.643 63.1756 52.9707 65.9036 52.9707C68.8076 52.9707 71.2716 53.5818 73.2956 54.8041V53.6582C73.2956 51.9166 72.7822 50.6332 71.7556 49.8082C70.7582 48.9527 69.1742 48.5249 67.0036 48.5249C65.7129 48.5249 64.4516 48.6624 63.2196 48.9374C62.0169 49.1818 60.9316 49.5332 59.9636 49.9916V46.2332C60.8436 45.8055 61.9876 45.4693 63.3956 45.2249C64.8036 44.9499 66.1676 44.8124 67.4876 44.8124C70.9782 44.8124 73.5596 45.6221 75.2316 47.2416C76.9329 48.8305 77.7836 51.0457 77.7836 53.8874V67.4999H73.6036V65.0249C72.6942 66.0638 71.6089 66.8582 70.3476 67.4082C69.1156 67.9276 67.6049 68.1874 65.8156 68.1874ZM66.9156 64.6582C68.3236 64.6582 69.5996 64.368 70.7436 63.7874C71.8876 63.2068 72.7382 62.3971 73.2956 61.3582V58.3791C71.3889 57.0957 69.2622 56.4541 66.9156 56.4541C65.2142 56.4541 63.9382 56.8055 63.0876 57.5082C62.2662 58.1805 61.8556 59.2193 61.8556 60.6249C61.8556 63.3138 63.5422 64.6582 66.9156 64.6582ZM90.4417 68.1874C88.9753 68.1874 87.4209 67.9888 85.7777 67.5916C84.1353 67.2249 82.8449 66.7207 81.9057 66.0791V62.1374C83.0497 62.8402 84.3697 63.4207 85.8657 63.8791C87.3617 64.3068 88.8137 64.5207 90.2217 64.5207C91.8057 64.5207 92.9649 64.3221 93.6977 63.9249C94.4313 63.5276 94.7977 62.886 94.7977 61.9999C94.7977 61.3277 94.6217 60.793 94.2697 60.3957C93.9473 59.968 93.3753 59.586 92.5537 59.2499C91.7617 58.9138 90.5593 58.5166 88.9457 58.0582C87.2153 57.5388 85.8369 57.0193 84.8097 56.4999C83.8129 55.9499 83.0497 55.2624 82.5217 54.4374C82.0233 53.6124 81.7737 52.543 81.7737 51.2291C81.7737 49.1207 82.5657 47.5318 84.1497 46.4624C85.7633 45.3624 87.9193 44.8124 90.6177 44.8124C92.0257 44.8124 93.4049 44.9499 94.7537 45.2249C96.1033 45.4999 97.1889 45.8818 98.0097 46.3707V50.2207C97.1593 49.7013 96.1033 49.2888 94.8417 48.9832C93.6097 48.6776 92.3489 48.5249 91.0577 48.5249C89.5033 48.5249 88.3153 48.7235 87.4937 49.1207C86.6729 49.518 86.2617 50.2207 86.2617 51.2291C86.2617 51.8707 86.4377 52.3902 86.7897 52.7874C87.1417 53.1847 87.6993 53.536 88.4617 53.8416C89.2537 54.1166 90.5009 54.4832 92.2017 54.9416C94.8713 55.7055 96.7193 56.6068 97.7457 57.6457C98.8017 58.6847 99.3297 60.1207 99.3297 61.9541C99.3297 63.8485 98.5817 65.361 97.0857 66.4916C95.5897 67.6221 93.3753 68.1874 90.4417 68.1874ZM111.677 68.1874C109.535 68.1874 107.878 67.5457 106.705 66.2624C105.561 64.9791 104.989 63.161 104.989 60.8082V49.0749H101.777V45.4999H104.989V38.8999H109.477V45.4999H114.669V49.0749H109.477V60.4874C109.477 61.9541 109.741 62.993 110.269 63.6041C110.826 64.2151 111.823 64.5207 113.261 64.5207C114.111 64.5207 114.962 64.3221 115.813 63.9249V67.5916C114.698 67.9888 113.319 68.1874 111.677 68.1874Z" fill="#2F2E41"/>
<path d="M119.994 45.5H124.306V49.4417C125.186 48.0972 126.418 47.1042 128.002 46.4625C129.615 45.8208 131.478 45.5 133.59 45.5V49.1208C131.331 49.1208 129.395 49.5027 127.782 50.2666C126.168 51.0306 125.054 52.2375 124.438 53.8875V67.5H119.994V45.5ZM140.164 41.1917C139.43 41.1917 138.814 40.9319 138.316 40.4125C137.817 39.8931 137.568 39.2514 137.568 38.4875C137.568 37.7236 137.817 37.0819 138.316 36.5625C138.814 36.0431 139.43 35.7833 140.164 35.7833C140.926 35.7833 141.557 36.0431 142.056 36.5625C142.584 37.0819 142.848 37.7236 142.848 38.4875C142.848 39.2514 142.584 39.8931 142.056 40.4125C141.557 40.9319 140.926 41.1917 140.164 41.1917ZM137.92 45.5H142.452V67.5H137.92V45.5ZM158.776 68.1875C156.664 68.1875 154.757 67.7139 153.056 66.7666C151.384 65.7889 150.064 64.4291 149.096 62.6875C148.157 60.9152 147.688 58.8681 147.688 56.5458C147.688 54.2542 148.157 52.2222 149.096 50.45C150.064 48.6777 151.384 47.3027 153.056 46.325C154.757 45.3166 156.664 44.8125 158.776 44.8125C162.589 44.8125 165.478 46.0194 167.444 48.4333V33.6292H171.888V67.5H167.576V64.2916C166.402 65.6361 165.112 66.6291 163.704 67.2708C162.325 67.8819 160.682 68.1875 158.776 68.1875ZM159.788 64.5208C161.606 64.5208 163.19 64.0319 164.54 63.0541C165.918 62.0458 166.886 60.7014 167.444 59.0208V54.0708C166.945 52.3902 165.992 51.0458 164.584 50.0375C163.205 49.0291 161.606 48.525 159.788 48.525C158.35 48.525 157.045 48.8611 155.872 49.5333C154.728 50.2056 153.818 51.1527 153.144 52.375C152.498 53.5972 152.176 54.9875 152.176 56.5458C152.176 58.1042 152.498 59.4944 153.144 60.7166C153.818 61.9389 154.728 62.8861 155.872 63.5583C157.045 64.2 158.35 64.5208 159.788 64.5208ZM189.23 68.1875C185.33 68.1875 182.264 67.1791 180.034 65.1625C177.834 63.1152 176.734 60.2431 176.734 56.5458C176.734 52.9402 177.718 50.0833 179.682 47.975C181.678 45.8666 184.508 44.8125 188.174 44.8125C190.61 44.8125 192.678 45.3014 194.378 46.2791C196.08 47.2264 197.356 48.5556 198.206 50.2666C199.086 51.9472 199.526 53.8722 199.526 56.0416V58.3333H180.958C181.106 60.4111 181.942 61.9694 183.466 63.0083C185.022 64.0166 187.118 64.5208 189.758 64.5208C191.108 64.5208 192.472 64.3986 193.85 64.1541C195.23 63.8791 196.446 63.5277 197.502 63.1V66.8125C196.564 67.2097 195.318 67.5306 193.762 67.775C192.238 68.05 190.726 68.1875 189.23 68.1875ZM195.346 55.0791C195.288 53.0014 194.628 51.3972 193.366 50.2666C192.134 49.1056 190.374 48.525 188.086 48.525C185.858 48.525 184.126 49.1208 182.894 50.3125C181.662 51.5041 181.018 53.0931 180.958 55.0791H195.346Z" fill="white"/>
</g>
<defs>
<clipPath id="clip0">
<path d="M0 0H210C226.569 0 240 13.4315 240 30V50C240 66.5685 226.569 80 210 80H0V0Z" fill="white"/>
</clipPath>
</defs>
</svg>
