<svg width="119" height="180" viewBox="0 0 119 180" fill="none" xmlns="http://www.w3.org/2000/svg">
<path d="M44.7952 12.9622H0.118042V52.6336L6.13578 54.904L0.118042 64.0228V103.046L6.13578 109.975L0.118042 113.987V180H71.5471L84.184 120.917L71.5471 51.0132L44.7952 12.9622Z" fill="#D6E8FD"/>
<path d="M95.3077 84.8104L71.5471 51.0133V180H95.3077V164.317L90.7488 157.753L95.3077 153.376V84.8104Z" fill="#A1D7F3"/>
<path d="M51.8115 153.376L44.8276 135.529C47.9561 134.321 50.6853 132.364 52.9082 129.702C57.6808 123.988 60.1193 115.155 60.1557 103.45C60.1813 95.2127 58.9824 88.4943 58.9317 88.2128L48.1647 90.157C48.1757 90.218 49.2545 96.3221 49.214 103.593C49.1648 112.467 47.5363 119.072 44.5052 122.696C43.4705 123.932 42.2685 124.806 40.8443 125.348L32.1174 103.046H0.118042V113.988H24.6493L44.3437 164.318H71.5467L73.6074 159.212L71.5467 153.376H51.8115V153.376Z" fill="#8298FC"/>
<path d="M71.5471 153.376H95.3081V164.317H71.5471V153.376Z" fill="#706BEF"/>
<path d="M26.8649 44.907L0.118042 52.6338V64.023L29.9015 55.4187L26.8649 44.907Z" fill="#8298FC"/>
<path d="M24.3713 47.1754C24.3713 58.0227 31.8023 72.6169 46.4583 90.5534C56.9838 103.435 67.3478 113.291 67.784 113.704L71.5471 117.27L80.902 55.9985L71.5471 0C45.5344 0 24.3713 21.1627 24.3713 47.1754Z" fill="#E63950"/>
<path d="M71.5471 0V117.27L75.3102 113.703C75.7464 113.29 86.1104 103.435 96.636 90.5531C111.292 72.6166 118.723 58.0227 118.723 47.175C118.723 21.1627 97.5594 0 71.5471 0Z" fill="#AE2538"/>
<path d="M54.2339 44.5687C54.2339 54.1154 62.0005 61.8819 71.5472 61.8819L76.1608 45.4214L71.5472 27.2555C62.0005 27.2555 54.2339 35.022 54.2339 44.5687Z" fill="#F0F7FF"/>
<path d="M71.5471 27.2555V61.8816C81.0934 61.8816 88.86 54.115 88.86 44.5683C88.86 35.0217 81.0934 27.2555 71.5471 27.2555Z" fill="#D6E8FD"/>
</svg>
