<svg width="60" height="60" viewBox="0 0 60 60" fill="none" xmlns="http://www.w3.org/2000/svg">
<path d="M29.9999 0C46.5694 0 60 13.4325 60 30.0001C60 46.5696 46.5694 60 29.9999 60C13.4304 60 0 46.5694 0 30.0001C0 13.4325 13.4306 0 29.9999 0Z" fill="#F2F2F2"/>
<path d="M48.7556 20.2106C47.4451 20.7768 46.0349 21.1574 44.5557 21.33C46.067 20.4506 47.2257 19.0612 47.7713 17.402C46.3576 18.2176 44.7938 18.8082 43.1269 19.125C41.7938 17.7469 39.8944 16.8862 37.7907 16.8862C33.7558 16.8862 30.482 20.0607 30.482 23.9793C30.482 24.5362 30.5459 25.0781 30.6713 25.5975C24.5963 25.3013 19.2076 22.4756 15.6039 18.1838C14.9739 19.2319 14.6139 20.4487 14.6139 21.75C14.6139 24.21 15.9038 26.3849 17.8651 27.6544C16.6652 27.6169 15.5401 27.3 14.5521 26.7657V26.8557C14.5521 30.2944 17.072 33.1614 20.417 33.8139C19.8038 33.9751 19.1588 34.0633 18.4913 34.0633C18.0206 34.0633 17.5632 34.0202 17.1169 33.9358C18.0468 36.7558 20.7469 38.8069 23.9476 38.8634C21.4445 40.7683 18.2925 41.9009 14.867 41.9009C14.2763 41.9009 13.6951 41.8671 13.1213 41.8016C16.3594 43.8153 20.1995 44.9909 24.33 44.9909C37.7775 44.9909 45.1313 34.1759 45.1313 24.8009L45.1107 23.8821C46.5356 22.8844 47.775 21.6357 48.7556 20.2106Z" fill="#33ABDA"/>
</svg>
