<svg width="121" height="120" viewBox="0 0 121 120" fill="none" xmlns="http://www.w3.org/2000/svg">
<path d="M29.5383 4.72509L14.1778 63.5157C13.2965 66.8908 15.3141 70.3447 18.6854 71.2259L48.9039 79.1199C52.2752 80.0012 55.7253 77.9761 56.6066 74.601L71.9671 15.8104C72.8484 12.4316 70.8308 8.98148 67.4595 8.1002L37.241 0.206203C33.8697 -0.675074 30.4196 1.34999 29.5383 4.72509Z" fill="#7FB239"/>
<path d="M52.1402 67.6709C49.0426 66.8609 45.8738 68.7209 45.0638 71.8223L25.6119 66.7409C26.4219 63.6395 24.5694 60.4707 21.468 59.6606L34.0122 11.6516C37.1098 12.4617 40.2786 10.6016 41.0886 7.50024L60.5405 12.5817C59.7305 15.683 61.583 18.8556 64.6844 19.6619L52.1402 67.6709Z" fill="#64892F"/>
<path d="M45.2179 31.4616C38.8679 29.8024 32.7606 32.1301 31.5768 36.6606C30.393 41.1911 34.5811 46.2089 40.9311 47.8681C47.281 49.5273 53.3884 47.1996 54.5721 42.6691C55.7559 38.1386 51.5679 33.1208 45.2179 31.4616Z" fill="#7FB239"/>
<path d="M38.851 55.8341C36.6909 55.2697 34.4818 56.5649 33.9169 58.727C33.3519 60.8891 34.6451 63.0994 36.8052 63.6638C38.9653 64.2282 41.1744 62.933 41.7394 60.7709C42.3043 58.6088 41.0112 56.3985 38.851 55.8341Z" fill="#7FB239"/>
<path d="M49.3432 15.6622C47.1831 15.0978 44.974 16.393 44.4091 18.5551C43.8441 20.7172 45.1373 22.9275 47.2974 23.4919C49.4575 24.0564 51.6666 22.7612 52.2315 20.599C52.7965 18.4369 51.5033 16.2266 49.3432 15.6622Z" fill="#7FB239"/>
<path d="M82.5201 19.2981L27.9671 46.1077C24.832 47.649 23.5419 51.4366 25.0795 54.568L38.8649 82.6264C40.4025 85.7577 44.1901 87.0478 47.3252 85.5065L101.878 58.6931C105.013 57.1518 106.303 53.3642 104.766 50.2328L90.9803 22.1745C89.439 19.0469 85.6514 17.7568 82.5201 19.2981Z" fill="#8CC63E"/>
<path d="M49.6427 77.5899C48.2289 74.7136 44.7487 73.5285 41.8724 74.9423L32.9996 56.8818C35.876 55.468 37.0648 51.9879 35.651 49.1115L80.2024 27.2146C81.6161 30.0909 85.0963 31.276 87.9726 29.8622L96.8454 47.9227C93.969 49.3365 92.7802 52.8166 94.194 55.693L49.6427 77.5899Z" fill="#719D34"/>
<path d="M72.5367 48.6762C69.6388 42.7797 63.8808 39.675 59.676 41.7415C55.4712 43.8081 54.4118 50.2634 57.3098 56.1599C60.2077 62.0564 65.9657 65.1611 70.1705 63.0946C74.3753 61.028 75.4347 54.5727 72.5367 48.6762Z" fill="#8CC63E"/>
<path d="M49.9227 59.7766C48.9369 57.7708 46.5102 56.9447 44.5025 57.9314C42.4949 58.9181 41.6665 61.3441 42.6523 63.3499C43.6381 65.3557 46.0648 66.1818 48.0725 65.1951C50.0801 64.2084 50.9085 61.7824 49.9227 59.7766Z" fill="#8CC63E"/>
<path d="M87.1822 41.4617C86.1964 39.4559 83.7697 38.6297 81.7621 39.6165C79.7544 40.6032 78.926 43.0291 79.9118 45.0349C80.8976 47.0407 83.3243 47.8669 85.332 46.8801C87.3396 45.8934 88.168 43.4675 87.1822 41.4617Z" fill="#8CC63E"/>
<path d="M111.332 49.6478V111.648C111.332 116.261 107.593 120 102.981 120H14.6391C10.0265 120 6.2876 116.261 6.2876 111.648V49.6478C6.2876 45.0351 10.0265 41.2963 14.6391 41.2963H102.981C107.593 41.2963 111.332 45.0351 111.332 49.6478Z" fill="#89664C"/>
<path d="M111.332 49.6479V111.649C111.332 116.261 107.593 120 102.981 120H14.6391C11.7028 120 9.11892 118.485 7.63013 116.194C48.9414 115.039 108.778 78.565 111.246 48.4553C111.302 48.8453 111.332 49.2428 111.332 49.6479Z" fill="#7A5B44"/>
<g opacity="0.05">
<path opacity="0.05" d="M91.1865 41.2963C76.7448 64.1907 35.3548 85.5364 6.2876 91.8778V49.6515C6.2876 45.0389 10.0265 41.3 14.6391 41.3H91.1865V41.2963Z" fill="white"/>
</g>
<path d="M114.448 73.7461V87.5577C114.448 89.414 112.941 90.9216 111.085 90.9216H87.0914C85.2351 90.9216 83.7275 89.414 83.7275 87.5577V73.7461C83.7275 71.8898 85.2313 70.3822 87.0914 70.3822H111.085C112.945 70.3785 114.448 71.886 114.448 73.7461Z" fill="#9A795F"/>
<path d="M114.448 73.7461V87.5578C114.448 89.4141 112.941 90.9216 111.085 90.9216H87.0914C86.4201 90.9216 85.7938 90.7266 85.2688 90.3853C95.4691 90.0441 107.646 83.4589 112.81 75.3849C113.41 74.4436 113.893 73.5211 114.257 72.6285C114.385 72.9773 114.448 73.3523 114.448 73.7461Z" fill="#8F6D52"/>
<g opacity="0.05">
<path opacity="0.05" d="M106.254 70.3784H87.0914C85.2351 70.3784 83.7275 71.886 83.7275 73.7423V83.9051C92.2553 83.1588 101.799 77.4586 106.254 70.3784Z" fill="white"/>
</g>
<path d="M94.9816 86.159C98.0241 86.159 100.49 83.6925 100.49 80.65C100.49 77.6075 98.0241 75.1411 94.9816 75.1411C91.9391 75.1411 89.4727 77.6075 89.4727 80.65C89.4727 83.6925 91.9391 86.159 94.9816 86.159Z" fill="#E9EFF4"/>
<g opacity="0.3">
<path opacity="0.3" d="M96.0278 76.1761C96.0278 79.2175 93.564 81.6851 90.5189 81.6851C90.1927 81.6851 89.8776 81.6551 89.5664 81.6026C89.5139 81.2951 89.4839 80.9763 89.4839 80.65C89.4839 77.6087 91.9477 75.1411 94.9928 75.1411C95.3191 75.1411 95.6341 75.1711 95.9453 75.2236C95.9978 75.5349 96.0278 75.8536 96.0278 76.1761Z" fill="white"/>
</g>
<path d="M100.502 80.65C100.502 83.6914 98.038 86.159 94.9929 86.159C92.8628 86.159 91.0178 84.9514 90.099 83.1851C90.8565 83.5789 91.7191 83.8039 92.6341 83.8039C95.6754 83.8039 98.1393 81.3401 98.1393 78.295C98.1393 77.3799 97.918 76.5174 97.5205 75.7599C99.2943 76.6749 100.502 78.52 100.502 80.65Z" fill="#DEE4E9"/>
<path d="M93.6978 76.7732C93.3155 76.391 92.5059 76.5811 91.8894 77.1977C91.273 77.8144 91.0831 78.6241 91.4654 79.0062C91.8477 79.3884 92.6573 79.1984 93.2738 78.5817C93.8903 77.9651 94.0801 77.1554 93.6978 76.7732Z" fill="white"/>
</svg>
